<svg width="32.882mm" height="22.627mm" version="1.1" viewBox="0 0 32.882 22.627" xmlns="http://www.w3.org/2000/svg"><g transform="matrix(-.17189 0 0 -.17189 34.49 25.773)"><g fill="#88d65d"><path transform="matrix(-1.5392 0 0 -1.5392 377.39 311.3)" d="m201.77 104.73c-10.064 0-18.166 8.1022-18.166 18.166v48.953c0 10.064 8.1022 18.166 18.166 18.166h19.17c10.064 0 18.166-8.1022 18.166-18.166v-48.953c0-10.064-8.1022-18.166-18.166-18.166zm-5.4316 12.93c3.8202 0.16467 6.7864 3.3903 6.6309 7.2109-0.15535 3.8208-3.3741 6.795-7.1953 6.6484-3.8215-0.14703-6.8028-3.3598-6.6641-7.1816l2e-3 -0.0605c0.17189-3.8212 3.4051-6.7817 7.2266-6.6172zm0 24.557c3.8202 0.16467 6.7864 3.3903 6.6309 7.2109-0.15535 3.8208-3.3741 6.795-7.1953 6.6484-3.8215-0.14703-6.8028-3.3598-6.6641-7.1816l2e-3 -0.0605c0.17189-3.8212 3.4051-6.7817 7.2266-6.6172zm0 24.557c3.8202 0.16467 6.7864 3.3903 6.6309 7.2109-0.15534 3.8208-3.3741 6.795-7.1953 6.6484-3.8215-0.14703-6.8028-3.3598-6.6641-7.1816l2e-3 -0.0605c0.17189-3.8212 3.4051-6.7817 7.2266-6.6172z"/><path transform="matrix(-1.5392 0 0 -1.5392 377.39 311.3)" d="m114.83 105.21v85.039h55.254v-85.039zm43.115 12.451c3.821 0.16363 6.7883 3.3896 6.6328 7.2109-0.15534 3.8216-3.3753 6.7961-7.1973 6.6484-3.8215-0.14703-6.8028-3.3598-6.6641-7.1816l4e-3 -0.0605c0.1719-3.8204 3.4039-6.7806 7.2246-6.6172zm0 24.557c3.821 0.16363 6.7883 3.3896 6.6328 7.2109-0.15534 3.8216-3.3753 6.7961-7.1973 6.6484-3.8215-0.14703-6.8028-3.3598-6.6641-7.1816l4e-3 -0.0605c0.1719-3.8204 3.4039-6.7806 7.2246-6.6172zm0 24.557c3.821 0.16363 6.7883 3.3896 6.6328 7.2109-0.15533 3.8216-3.3753 6.7961-7.1973 6.6484-3.8215-0.14703-6.8028-3.3598-6.6641-7.1816l4e-3 -0.0605c0.1719-3.8204 3.4039-6.7806 7.2246-6.6172z"/></g><g fill="#62bb2f"><rect x="75.032" y="115.23" width="59.935" height="8.5744"/><rect x="75.032" y="77.436" width="59.935" height="8.5744"/><rect x="75.032" y="39.638" width="59.935" height="8.5744"/></g></g></svg>
